<svg width="180" height="38" viewBox="0 0 180 38" fill="none" xmlns="http://www.w3.org/2000/svg">
<path d="M4.82508 34.3478V27.3478H8.08508C8.89841 27.3478 9.53175 27.5045 9.98508 27.8178C10.4384 28.1311 10.6651 28.5778 10.6651 29.1578C10.6651 29.7311 10.4517 30.1778 10.0251 30.4978C9.59841 30.8111 9.03175 30.9678 8.32508 30.9678L8.51508 30.5478C9.30174 30.5478 9.91174 30.7045 10.3451 31.0178C10.7784 31.3311 10.9951 31.7845 10.9951 32.3778C10.9951 32.9911 10.7617 33.4745 10.2951 33.8278C9.83508 34.1745 9.16174 34.3478 8.27508 34.3478H4.82508ZM6.43508 33.1478H8.21508C8.58841 33.1478 8.87175 33.0745 9.06508 32.9278C9.25841 32.7811 9.35508 32.5545 9.35508 32.2478C9.35508 31.9545 9.25841 31.7378 9.06508 31.5978C8.87175 31.4511 8.58841 31.3778 8.21508 31.3778H6.43508V33.1478ZM6.43508 30.2478H7.94508C8.29841 30.2478 8.56508 30.1778 8.74508 30.0378C8.92508 29.8911 9.01508 29.6778 9.01508 29.3978C9.01508 29.1178 8.92508 28.9078 8.74508 28.7678C8.56508 28.6211 8.29841 28.5478 7.94508 28.5478H6.43508V30.2478ZM14.6763 34.4278C14.1029 34.4278 13.5929 34.3078 13.1463 34.0678C12.7063 33.8278 12.3563 33.5011 12.0963 33.0878C11.8429 32.6678 11.7163 32.1911 11.7163 31.6578C11.7163 31.1178 11.8429 30.6411 12.0963 30.2278C12.3563 29.8078 12.7063 29.4811 13.1463 29.2478C13.5929 29.0078 14.1029 28.8878 14.6763 28.8878C15.2429 28.8878 15.7496 29.0078 16.1963 29.2478C16.6429 29.4811 16.9929 29.8045 17.2463 30.2178C17.4996 30.6311 17.6263 31.1111 17.6263 31.6578C17.6263 32.1911 17.4996 32.6678 17.2463 33.0878C16.9929 33.5011 16.6429 33.8278 16.1963 34.0678C15.7496 34.3078 15.2429 34.4278 14.6763 34.4278ZM14.6763 33.1478C14.9363 33.1478 15.1696 33.0878 15.3763 32.9678C15.5829 32.8478 15.7463 32.6778 15.8663 32.4578C15.9863 32.2311 16.0463 31.9645 16.0463 31.6578C16.0463 31.3445 15.9863 31.0778 15.8663 30.8578C15.7463 30.6378 15.5829 30.4678 15.3763 30.3478C15.1696 30.2278 14.9363 30.1678 14.6763 30.1678C14.4163 30.1678 14.1829 30.2278 13.9762 30.3478C13.7696 30.4678 13.6029 30.6378 13.4763 30.8578C13.3563 31.0778 13.2963 31.3445 13.2963 31.6578C13.2963 31.9645 13.3563 32.2311 13.4763 32.4578C13.6029 32.6778 13.7696 32.8478 13.9762 32.9678C14.1829 33.0878 14.4163 33.1478 14.6763 33.1478ZM22.3211 33.6478V30.2478H20.5611L20.5311 30.9378C20.5178 31.2245 20.5011 31.4978 20.4811 31.7578C20.4611 32.0178 20.4211 32.2545 20.3611 32.4678C20.3078 32.6745 20.2278 32.8511 20.1211 32.9978C20.0144 33.1378 19.8711 33.2345 19.6911 33.2878L18.1511 33.0678C18.3444 33.0678 18.5011 33.0111 18.6211 32.8978C18.7411 32.7778 18.8344 32.6145 18.9011 32.4078C18.9678 32.1945 19.0178 31.9545 19.0511 31.6878C19.0844 31.4145 19.1078 31.1278 19.1211 30.8278L19.1911 28.9678H23.8811V33.6478H22.3211ZM17.9711 35.5078V33.0678H24.6511V35.5078H23.2011V34.3478H19.4211V35.5078H17.9711ZM28.8528 34.3478V33.2978L28.7528 33.0678V31.1878C28.7528 30.8545 28.6495 30.5945 28.4428 30.4078C28.2428 30.2211 27.9328 30.1278 27.5128 30.1278C27.2261 30.1278 26.9428 30.1745 26.6628 30.2678C26.3895 30.3545 26.1561 30.4745 25.9628 30.6278L25.4028 29.5378C25.6961 29.3311 26.0495 29.1711 26.4628 29.0578C26.8761 28.9445 27.2961 28.8878 27.7228 28.8878C28.5428 28.8878 29.1795 29.0811 29.6328 29.4678C30.0861 29.8545 30.3128 30.4578 30.3128 31.2778V34.3478H28.8528ZM27.2128 34.4278C26.7928 34.4278 26.4328 34.3578 26.1328 34.2178C25.8328 34.0711 25.6028 33.8745 25.4428 33.6278C25.2828 33.3811 25.2028 33.1045 25.2028 32.7978C25.2028 32.4778 25.2795 32.1978 25.4328 31.9578C25.5928 31.7178 25.8428 31.5311 26.1828 31.3978C26.5228 31.2578 26.9661 31.1878 27.5128 31.1878H28.9428V32.0978H27.6828C27.3161 32.0978 27.0628 32.1578 26.9228 32.2778C26.7895 32.3978 26.7228 32.5478 26.7228 32.7278C26.7228 32.9278 26.7995 33.0878 26.9528 33.2078C27.1128 33.3211 27.3295 33.3778 27.6028 33.3778C27.8628 33.3778 28.0961 33.3178 28.3028 33.1978C28.5095 33.0711 28.6595 32.8878 28.7528 32.6478L28.9928 33.3678C28.8795 33.7145 28.6728 33.9778 28.3728 34.1578C28.0728 34.3378 27.6861 34.4278 27.2128 34.4278ZM34.5 34.3478V28.9678H39.85V34.3478H38.29V29.8978L38.64 30.2478H35.7L36.05 29.8978V34.3478H34.5ZM41.3457 34.3478V28.9678H42.8957V32.1678L45.5157 28.9678H46.9457V34.3478H45.3957V31.1478L42.7857 34.3478H41.3457ZM49.5953 34.3478V29.8878L49.9453 30.2478H47.7753V28.9678H52.9653V30.2478H50.7953L51.1453 29.8878V34.3478H49.5953ZM56.7069 30.6878C57.4135 30.6945 57.9502 30.8545 58.3169 31.1678C58.6902 31.4745 58.8769 31.9111 58.8769 32.4778C58.8769 33.0711 58.6669 33.5345 58.2469 33.8678C57.8269 34.1945 57.2435 34.3578 56.4969 34.3578L53.7969 34.3478V28.9678H55.3469V30.6878H56.7069ZM56.3569 33.2478C56.6569 33.2545 56.8869 33.1911 57.0469 33.0578C57.2069 32.9245 57.2869 32.7245 57.2869 32.4578C57.2869 32.1911 57.2069 32.0011 57.0469 31.8878C56.8869 31.7678 56.6569 31.7045 56.3569 31.6978L55.3469 31.6878V33.2478H56.3569ZM62.4816 34.4278C61.8682 34.4278 61.3282 34.3078 60.8616 34.0678C60.4016 33.8278 60.0449 33.5011 59.7916 33.0878C59.5382 32.6678 59.4116 32.1911 59.4116 31.6578C59.4116 31.1178 59.5349 30.6411 59.7816 30.2278C60.0349 29.8078 60.3782 29.4811 60.8116 29.2478C61.2449 29.0078 61.7349 28.8878 62.2816 28.8878C62.8082 28.8878 63.2816 29.0011 63.7016 29.2278C64.1282 29.4478 64.4649 29.7678 64.7116 30.1878C64.9582 30.6011 65.0816 31.0978 65.0816 31.6778C65.0816 31.7378 65.0782 31.8078 65.0716 31.8878C65.0649 31.9611 65.0582 32.0311 65.0516 32.0978H60.6816V31.1878H64.2316L63.6316 31.4578C63.6316 31.1778 63.5749 30.9345 63.4616 30.7278C63.3482 30.5211 63.1916 30.3611 62.9916 30.2478C62.7916 30.1278 62.5582 30.0678 62.2916 30.0678C62.0249 30.0678 61.7882 30.1278 61.5816 30.2478C61.3816 30.3611 61.2249 30.5245 61.1116 30.7378C60.9982 30.9445 60.9416 31.1911 60.9416 31.4778V31.7178C60.9416 32.0111 61.0049 32.2711 61.1316 32.4978C61.2649 32.7178 61.4482 32.8878 61.6816 33.0078C61.9216 33.1211 62.2016 33.1778 62.5216 33.1778C62.8082 33.1778 63.0582 33.1345 63.2716 33.0478C63.4916 32.9611 63.6916 32.8311 63.8716 32.6578L64.7016 33.5578C64.4549 33.8378 64.1449 34.0545 63.7716 34.2078C63.3982 34.3545 62.9682 34.4278 62.4816 34.4278ZM66.2773 34.3478V28.9678H69.0273C69.7007 28.9678 70.2273 29.0911 70.6073 29.3378C70.9873 29.5778 71.1773 29.9178 71.1773 30.3578C71.1773 30.7978 70.9973 31.1445 70.6373 31.3978C70.284 31.6445 69.814 31.7678 69.2273 31.7678L69.3873 31.4078C70.0407 31.4078 70.5273 31.5278 70.8473 31.7678C71.174 32.0078 71.3373 32.3578 71.3373 32.8178C71.3373 33.2911 71.1573 33.6645 70.7973 33.9378C70.4373 34.2111 69.8873 34.3478 69.1473 34.3478H66.2773ZM67.7073 33.2878H69.0173C69.304 33.2878 69.5173 33.2411 69.6573 33.1478C69.804 33.0478 69.8773 32.8978 69.8773 32.6978C69.8773 32.4911 69.8107 32.3411 69.6773 32.2478C69.544 32.1478 69.334 32.0978 69.0473 32.0978H67.7073V33.2878ZM67.7073 31.1778H68.8873C69.1607 31.1778 69.364 31.1278 69.4973 31.0278C69.6373 30.9278 69.7073 30.7845 69.7073 30.5978C69.7073 30.4045 69.6373 30.2611 69.4973 30.1678C69.364 30.0745 69.1607 30.0278 68.8873 30.0278H67.7073V31.1778ZM75.718 34.3478V33.2978L75.618 33.0678V31.1878C75.618 30.8545 75.5147 30.5945 75.308 30.4078C75.108 30.2211 74.798 30.1278 74.378 30.1278C74.0914 30.1278 73.808 30.1745 73.528 30.2678C73.2547 30.3545 73.0214 30.4745 72.828 30.6278L72.268 29.5378C72.5614 29.3311 72.9147 29.1711 73.328 29.0578C73.7414 28.9445 74.1614 28.8878 74.588 28.8878C75.408 28.8878 76.0447 29.0811 76.498 29.4678C76.9514 29.8545 77.178 30.4578 77.178 31.2778V34.3478H75.718ZM74.078 34.4278C73.658 34.4278 73.298 34.3578 72.998 34.2178C72.698 34.0711 72.468 33.8745 72.308 33.6278C72.148 33.3811 72.068 33.1045 72.068 32.7978C72.068 32.4778 72.1447 32.1978 72.298 31.9578C72.458 31.7178 72.708 31.5311 73.048 31.3978C73.388 31.2578 73.8314 31.1878 74.378 31.1878H75.808V32.0978H74.548C74.1814 32.0978 73.928 32.1578 73.788 32.2778C73.6547 32.3978 73.588 32.5478 73.588 32.7278C73.588 32.9278 73.6647 33.0878 73.818 33.2078C73.978 33.3211 74.1947 33.3778 74.468 33.3778C74.728 33.3778 74.9614 33.3178 75.168 33.1978C75.3747 33.0711 75.5247 32.8878 75.618 32.6478L75.858 33.3678C75.7447 33.7145 75.538 33.9778 75.238 34.1578C74.938 34.3378 74.5514 34.4278 74.078 34.4278ZM81.9232 34.3478V32.5578L82.1432 32.8078H80.6532C79.8799 32.8078 79.2732 32.6478 78.8332 32.3278C78.3932 32.0078 78.1732 31.5478 78.1732 30.9478C78.1732 30.3078 78.4032 29.8178 78.8632 29.4778C79.3299 29.1378 79.9565 28.9678 80.7432 28.9678H83.3132V34.3478H81.9232ZM78.0932 34.3478L79.5232 32.2978H81.1132L79.7532 34.3478H78.0932ZM81.9232 32.0778V29.8378L82.1432 30.2378H80.7732C80.4532 30.2378 80.2032 30.2978 80.0232 30.4178C79.8499 30.5378 79.7632 30.7311 79.7632 30.9978C79.7632 31.5111 80.0932 31.7678 80.7532 31.7678H82.1432L81.9232 32.0778ZM87.6445 34.3478V28.9678H89.1945V31.0678H91.5345V28.9678H93.0945V34.3478H91.5345V32.3378H89.1945V34.3478H87.6445ZM97.2179 34.4278C96.6046 34.4278 96.0646 34.3078 95.5979 34.0678C95.1379 33.8278 94.7812 33.5011 94.5279 33.0878C94.2746 32.6678 94.1479 32.1911 94.1479 31.6578C94.1479 31.1178 94.2712 30.6411 94.5179 30.2278C94.7712 29.8078 95.1146 29.4811 95.5479 29.2478C95.9812 29.0078 96.4712 28.8878 97.0179 28.8878C97.5446 28.8878 98.0179 29.0011 98.4379 29.2278C98.8646 29.4478 99.2012 29.7678 99.4479 30.1878C99.6946 30.6011 99.8179 31.0978 99.8179 31.6778C99.8179 31.7378 99.8146 31.8078 99.8079 31.8878C99.8012 31.9611 99.7946 32.0311 99.7879 32.0978H95.4179V31.1878H98.9679L98.3679 31.4578C98.3679 31.1778 98.3112 30.9345 98.1979 30.7278C98.0846 30.5211 97.9279 30.3611 97.7279 30.2478C97.5279 30.1278 97.2946 30.0678 97.0279 30.0678C96.7612 30.0678 96.5246 30.1278 96.3179 30.2478C96.1179 30.3611 95.9612 30.5245 95.8479 30.7378C95.7346 30.9445 95.6779 31.1911 95.6779 31.4778V31.7178C95.6779 32.0111 95.7412 32.2711 95.8679 32.4978C96.0012 32.7178 96.1846 32.8878 96.4179 33.0078C96.6579 33.1211 96.9379 33.1778 97.2579 33.1778C97.5446 33.1778 97.7946 33.1345 98.0079 33.0478C98.2279 32.9611 98.4279 32.8311 98.6079 32.6578L99.4379 33.5578C99.1912 33.8378 98.8812 34.0545 98.5079 34.2078C98.1346 34.3545 97.7046 34.4278 97.2179 34.4278ZM101.014 34.3478V28.9678H105.324V30.2478H102.214L102.564 29.9078V34.3478H101.014ZM109.37 34.3478V33.2978L109.27 33.0678V31.1878C109.27 30.8545 109.167 30.5945 108.96 30.4078C108.76 30.2211 108.45 30.1278 108.03 30.1278C107.744 30.1278 107.46 30.1745 107.18 30.2678C106.907 30.3545 106.674 30.4745 106.48 30.6278L105.92 29.5378C106.214 29.3311 106.567 29.1711 106.98 29.0578C107.394 28.9445 107.814 28.8878 108.24 28.8878C109.06 28.8878 109.697 29.0811 110.15 29.4678C110.604 29.8545 110.83 30.4578 110.83 31.2778V34.3478H109.37ZM107.73 34.4278C107.31 34.4278 106.95 34.3578 106.65 34.2178C106.35 34.0711 106.12 33.8745 105.96 33.6278C105.8 33.3811 105.72 33.1045 105.72 32.7978C105.72 32.4778 105.797 32.1978 105.95 31.9578C106.11 31.7178 106.36 31.5311 106.7 31.3978C107.04 31.2578 107.484 31.1878 108.03 31.1878H109.46V32.0978H108.2C107.834 32.0978 107.58 32.1578 107.44 32.2778C107.307 32.3978 107.24 32.5478 107.24 32.7278C107.24 32.9278 107.317 33.0878 107.47 33.2078C107.63 33.3211 107.847 33.3778 108.12 33.3778C108.38 33.3778 108.614 33.3178 108.82 33.1978C109.027 33.0711 109.177 32.8878 109.27 32.6478L109.51 33.3678C109.397 33.7145 109.19 33.9778 108.89 34.1578C108.59 34.3378 108.204 34.4278 107.73 34.4278ZM113.957 34.4478C113.543 34.4478 113.13 34.4045 112.717 34.3178C112.31 34.2311 111.933 34.1011 111.587 33.9278L112.007 32.8378C112.28 32.9711 112.577 33.0745 112.897 33.1478C113.223 33.2145 113.553 33.2478 113.887 33.2478C114.127 33.2478 114.333 33.2245 114.507 33.1778C114.687 33.1245 114.823 33.0511 114.917 32.9578C115.01 32.8645 115.057 32.7511 115.057 32.6178C115.057 32.4445 114.983 32.3145 114.837 32.2278C114.69 32.1345 114.477 32.0878 114.197 32.0878H113.097V31.1178H114.067C114.247 31.1178 114.4 31.0978 114.527 31.0578C114.653 31.0178 114.747 30.9611 114.807 30.8878C114.873 30.8078 114.907 30.7145 114.907 30.6078C114.907 30.4945 114.867 30.3978 114.787 30.3178C114.707 30.2378 114.59 30.1778 114.437 30.1378C114.283 30.0911 114.09 30.0678 113.857 30.0678C113.59 30.0678 113.313 30.1011 113.027 30.1678C112.74 30.2278 112.447 30.3178 112.147 30.4378L111.767 29.3578C112.12 29.2111 112.47 29.0945 112.817 29.0078C113.163 28.9211 113.507 28.8745 113.847 28.8678C114.347 28.8545 114.797 28.9078 115.197 29.0278C115.597 29.1478 115.91 29.3211 116.137 29.5478C116.37 29.7745 116.487 30.0511 116.487 30.3778C116.487 30.6378 116.407 30.8711 116.247 31.0778C116.093 31.2845 115.88 31.4478 115.607 31.5678C115.333 31.6811 115.027 31.7378 114.687 31.7378L114.727 31.4278C115.32 31.4278 115.787 31.5478 116.127 31.7878C116.467 32.0211 116.637 32.3411 116.637 32.7478C116.637 33.0945 116.517 33.3978 116.277 33.6578C116.043 33.9111 115.723 34.1078 115.317 34.2478C114.917 34.3811 114.463 34.4478 113.957 34.4478ZM117.752 34.3478V28.9678H119.302V32.1678L121.922 28.9678H123.352V34.3478H121.802V31.1478L119.192 34.3478H117.752ZM128.022 34.4278C127.568 34.4278 127.172 34.3278 126.832 34.1278C126.492 33.9278 126.225 33.6245 126.032 33.2178C125.845 32.8045 125.752 32.2845 125.752 31.6578C125.752 31.0245 125.842 30.5045 126.022 30.0978C126.202 29.6911 126.462 29.3878 126.802 29.1878C127.142 28.9878 127.548 28.8878 128.022 28.8878C128.528 28.8878 128.982 29.0045 129.382 29.2378C129.788 29.4645 130.108 29.7845 130.342 30.1978C130.582 30.6111 130.702 31.0978 130.702 31.6578C130.702 32.2245 130.582 32.7145 130.342 33.1278C130.108 33.5411 129.788 33.8611 129.382 34.0878C128.982 34.3145 128.528 34.4278 128.022 34.4278ZM124.842 36.2878V28.9678H126.332V30.0678L126.302 31.6678L126.402 33.2578V36.2878H124.842ZM127.752 33.1478C128.012 33.1478 128.242 33.0878 128.442 32.9678C128.648 32.8478 128.812 32.6778 128.932 32.4578C129.058 32.2311 129.122 31.9645 129.122 31.6578C129.122 31.3445 129.058 31.0778 128.932 30.8578C128.812 30.6378 128.648 30.4678 128.442 30.3478C128.242 30.2278 128.012 30.1678 127.752 30.1678C127.492 30.1678 127.258 30.2278 127.052 30.3478C126.845 30.4678 126.682 30.6378 126.562 30.8578C126.442 31.0778 126.382 31.3445 126.382 31.6578C126.382 31.9645 126.442 32.2311 126.562 32.4578C126.682 32.6778 126.845 32.8478 127.052 32.9678C127.258 33.0878 127.492 33.1478 127.752 33.1478ZM134.315 34.4278C133.742 34.4278 133.232 34.3078 132.785 34.0678C132.345 33.8278 131.995 33.5011 131.735 33.0878C131.482 32.6678 131.355 32.1911 131.355 31.6578C131.355 31.1178 131.482 30.6411 131.735 30.2278C131.995 29.8078 132.345 29.4811 132.785 29.2478C133.232 29.0078 133.742 28.8878 134.315 28.8878C134.882 28.8878 135.388 29.0078 135.835 29.2478C136.282 29.4811 136.632 29.8045 136.885 30.2178C137.138 30.6311 137.265 31.1111 137.265 31.6578C137.265 32.1911 137.138 32.6678 136.885 33.0878C136.632 33.5011 136.282 33.8278 135.835 34.0678C135.388 34.3078 134.882 34.4278 134.315 34.4278ZM134.315 33.1478C134.575 33.1478 134.808 33.0878 135.015 32.9678C135.222 32.8478 135.385 32.6778 135.505 32.4578C135.625 32.2311 135.685 31.9645 135.685 31.6578C135.685 31.3445 135.625 31.0778 135.505 30.8578C135.385 30.6378 135.222 30.4678 135.015 30.3478C134.808 30.2278 134.575 30.1678 134.315 30.1678C134.055 30.1678 133.822 30.2278 133.615 30.3478C133.408 30.4678 133.242 30.6378 133.115 30.8578C132.995 31.0778 132.935 31.3445 132.935 31.6578C132.935 31.9645 132.995 32.2311 133.115 32.4578C133.242 32.6778 133.408 32.8478 133.615 32.9678C133.822 33.0878 134.055 33.1478 134.315 33.1478ZM138.338 34.3478V28.9678H141.088C141.761 28.9678 142.288 29.0911 142.668 29.3378C143.048 29.5778 143.238 29.9178 143.238 30.3578C143.238 30.7978 143.058 31.1445 142.698 31.3978C142.345 31.6445 141.875 31.7678 141.288 31.7678L141.448 31.4078C142.101 31.4078 142.588 31.5278 142.908 31.7678C143.235 32.0078 143.398 32.3578 143.398 32.8178C143.398 33.2911 143.218 33.6645 142.858 33.9378C142.498 34.2111 141.948 34.3478 141.208 34.3478H138.338ZM139.768 33.2878H141.078C141.365 33.2878 141.578 33.2411 141.718 33.1478C141.865 33.0478 141.938 32.8978 141.938 32.6978C141.938 32.4911 141.871 32.3411 141.738 32.2478C141.605 32.1478 141.395 32.0978 141.108 32.0978H139.768V33.2878ZM139.768 31.1778H140.948C141.221 31.1778 141.425 31.1278 141.558 31.0278C141.698 30.9278 141.768 30.7845 141.768 30.5978C141.768 30.4045 141.698 30.2611 141.558 30.1678C141.425 30.0745 141.221 30.0278 140.948 30.0278H139.768V31.1778ZM147.779 34.3478V33.2978L147.679 33.0678V31.1878C147.679 30.8545 147.575 30.5945 147.369 30.4078C147.169 30.2211 146.859 30.1278 146.439 30.1278C146.152 30.1278 145.869 30.1745 145.589 30.2678C145.315 30.3545 145.082 30.4745 144.889 30.6278L144.329 29.5378C144.622 29.3311 144.975 29.1711 145.389 29.0578C145.802 28.9445 146.222 28.8878 146.649 28.8878C147.469 28.8878 148.105 29.0811 148.559 29.4678C149.012 29.8545 149.239 30.4578 149.239 31.2778V34.3478H147.779ZM146.139 34.4278C145.719 34.4278 145.359 34.3578 145.059 34.2178C144.759 34.0711 144.529 33.8745 144.369 33.6278C144.209 33.3811 144.129 33.1045 144.129 32.7978C144.129 32.4778 144.205 32.1978 144.359 31.9578C144.519 31.7178 144.769 31.5311 145.109 31.3978C145.449 31.2578 145.892 31.1878 146.439 31.1878H147.869V32.0978H146.609C146.242 32.0978 145.989 32.1578 145.849 32.2778C145.715 32.3978 145.649 32.5478 145.649 32.7278C145.649 32.9278 145.725 33.0878 145.879 33.2078C146.039 33.3211 146.255 33.3778 146.529 33.3778C146.789 33.3778 147.022 33.3178 147.229 33.1978C147.435 33.0711 147.585 32.8878 147.679 32.6478L147.919 33.3678C147.805 33.7145 147.599 33.9778 147.299 34.1578C146.999 34.3378 146.612 34.4278 146.139 34.4278ZM150.594 34.3478V28.9678H152.144V31.0678H154.484V28.9678H156.044V34.3478H154.484V32.3378H152.144V34.3478H150.594ZM157.537 34.3478V28.9678H159.087V31.0678H161.427V28.9678H162.987V34.3478H161.427V32.3378H159.087V34.3478H157.537ZM167.7 34.3478V33.2978L167.6 33.0678V31.1878C167.6 30.8545 167.497 30.5945 167.29 30.4078C167.09 30.2211 166.78 30.1278 166.36 30.1278C166.074 30.1278 165.79 30.1745 165.51 30.2678C165.237 30.3545 165.004 30.4745 164.81 30.6278L164.25 29.5378C164.544 29.3311 164.897 29.1711 165.31 29.0578C165.724 28.9445 166.144 28.8878 166.57 28.8878C167.39 28.8878 168.027 29.0811 168.48 29.4678C168.934 29.8545 169.16 30.4578 169.16 31.2778V34.3478H167.7ZM166.06 34.4278C165.64 34.4278 165.28 34.3578 164.98 34.2178C164.68 34.0711 164.45 33.8745 164.29 33.6278C164.13 33.3811 164.05 33.1045 164.05 32.7978C164.05 32.4778 164.127 32.1978 164.28 31.9578C164.44 31.7178 164.69 31.5311 165.03 31.3978C165.37 31.2578 165.814 31.1878 166.36 31.1878H167.79V32.0978H166.53C166.164 32.0978 165.91 32.1578 165.77 32.2778C165.637 32.3978 165.57 32.5478 165.57 32.7278C165.57 32.9278 165.647 33.0878 165.8 33.2078C165.96 33.3211 166.177 33.3778 166.45 33.3778C166.71 33.3778 166.944 33.3178 167.15 33.1978C167.357 33.0711 167.507 32.8878 167.6 32.6478L167.84 33.3678C167.727 33.7145 167.52 33.9778 167.22 34.1578C166.92 34.3378 166.534 34.4278 166.06 34.4278ZM173.906 34.3478V32.5578L174.126 32.8078H172.636C171.862 32.8078 171.256 32.6478 170.816 32.3278C170.376 32.0078 170.156 31.5478 170.156 30.9478C170.156 30.3078 170.386 29.8178 170.846 29.4778C171.312 29.1378 171.939 28.9678 172.726 28.9678H175.296V34.3478H173.906ZM170.076 34.3478L171.506 32.2978H173.096L171.736 34.3478H170.076ZM173.906 32.0778V29.8378L174.126 30.2378H172.756C172.436 30.2378 172.186 30.2978 172.006 30.4178C171.832 30.5378 171.746 30.7311 171.746 30.9978C171.746 31.5111 172.076 31.7678 172.736 31.7678H174.126L173.906 32.0778Z" fill="white"/>
<g clip-path="url(#clip0_125_691)">
<path d="M115.432 0.0625652C112.985 0.780416 112.752 3.73177 113.391 4.17326C113.816 4.39226 114.445 4.15414 114.226 3.7057C113.943 3.65182 113.383 3.71961 113.579 2.81056C113.982 1.67208 115.033 1.427 115.665 1.41657C116.735 1.41657 117.793 2.5116 117.6 3.6466C117.229 5.58289 115.543 6.85173 114.486 6.64489C112.672 6.12519 109.794 3.55622 107.684 3.59272C105.787 3.62575 104.721 4.70861 102.458 6.39981C102.251 6.62925 102.905 7.9763 103.114 7.74687C105.221 5.85056 107.068 4.50872 107.912 4.49308C109.809 4.46005 112.385 7.13331 114.501 7.54872C115.77 7.75382 118.17 5.96006 118.437 3.17905C118.628 2.04404 117.321 -0.424113 115.432 0.0608271V0.0625652Z" fill="white"/>
<path d="M116.539 3.7648C116.544 3.43977 115.681 2.32214 115.471 2.32562C115.265 2.55505 115.565 3.32679 115.705 3.67963C115.454 4.04985 115.087 4.59563 115.096 5.04928C115.521 5.26829 116.556 4.11764 116.541 3.7648H116.539Z" fill="white"/>
<path d="M111.328 6.92647C110.906 6.93342 108.142 5.62287 107.31 6.31638C107.104 6.54582 107.536 7.21848 107.744 6.9873C108.366 6.29726 110.148 7.13852 111.347 7.98847C111.558 8.05278 111.54 6.92126 111.329 6.92473L111.328 6.92647Z" fill="white"/>
<path d="M180 8.61768H170.725C162.848 9.42939 164.144 19.375 171.224 19.2725C170.143 20.4926 168.624 21.0714 166.935 21.4034C166.166 21.5286 165.037 21.5373 163.784 21.5042C163.188 20.9254 163.198 16.4619 163.244 11.762C163.106 9.01397 159.917 8.49427 156.263 8.31176C153.433 8.20574 150.379 9.42765 150.08 10.4427C150.128 11.317 150.432 11.4404 150.878 11.1536C152.642 9.3755 154.569 8.75325 156.661 9.32684C157.558 9.63101 157.459 11.0528 157.459 13.5887C156.065 13.0117 154.982 12.8361 154.068 12.8779C148.184 12.9787 146.49 18.5616 150.941 21.5042H148.456C147.509 20.8872 144.638 15.6154 142.102 11.1536C143.14 10.2567 143.996 9.73356 144.993 9.83437C146.29 10.0377 146.389 8.8193 145.092 8.61594C143.762 8.36391 140.885 11.0041 137.912 13.8286V8.71849H131.928L131.805 21.5042L126.943 21.4034C128.311 20.9324 129.46 19.8773 130.432 18.3582C130.432 17.5465 129.834 17.4457 129.535 17.8507C128.417 20.0199 126.663 21.0905 124.35 21.2001C123.716 21.1549 123.651 20.7899 123.651 20.3883L123.75 9.93518C123.764 9.40853 124.169 9.23645 124.748 9.22429C126.63 9.24341 127.991 10.175 129.037 11.6594C129.436 11.9636 130.034 11.4561 129.834 11.1519C128.536 9.04178 126.466 8.25614 123.851 8.41258C115.774 9.52846 115.675 18.8657 121.258 21.5042L115.275 21.4034V8.3135C115.195 7.96414 114.995 7.95892 114.776 8.00933L105.701 15.6971V8.61768L99.7316 8.57075V21.4052H90.2434C90.7353 21.1184 91.0581 20.6717 91.3399 20.1867C93.5467 16.74 96.0576 13.0221 98.7648 9.12521C98.7563 8.30307 98.3566 8.23007 97.822 8.41431L93.9328 14.4022C92.5168 12.3599 91.3263 10.3975 90.6413 8.61768H82.9619C84.8374 10.7399 87.5668 15.2921 90.3407 19.9729C89.9427 20.8298 89.1434 21.4052 88.5046 21.4052C88.0468 21.3043 87.5412 20.908 86.9502 20.8976C86.5984 20.995 86.419 21.1775 86.3353 21.4052H84.2447C84.436 20.7794 83.8809 20.6943 83.061 20.7968L74.5839 7.60434L67.4032 20.8976C66.7286 20.7829 66.4433 20.9654 66.4911 21.4052H65.111C66.4416 19.9434 66.3135 19.2533 65.4099 18.97L63.3757 21.3043H58.5828L58.6307 16.5349H66.3101C66.375 10.5487 62.8205 7.30017 59.2797 7.7573C53.047 8.82278 51.8685 16.2898 54.6594 21.3043H52.6491L44.172 6.99599C40.8771 13.2881 36.7676 21.2261 35.7957 22.8269C35.314 24.1705 36.3491 24.5164 36.993 23.7395L41.4801 14.2006L47.1047 24.3478H179.696C179.484 20.0807 179.672 14.5621 179.995 8.61768H180ZM58.6375 10.0377C58.6375 8.00759 61.4302 7.90678 61.4302 10.0377V15.5181H58.6375V10.0377ZM68.6091 20.8959L71.9996 14.4005L75.8427 20.8959H68.6091ZM109.245 21.4034L101.12 21.5233V21.4034C103.865 18.5529 106.62 15.9752 109.397 13.8947L109.245 21.4034ZM137.818 21.5042V14.9654L141.543 21.5042H137.818ZM157.264 21.5042H155.64C156.181 21.2974 156.723 20.9584 157.264 20.4892V21.5042ZM157.402 19.3559C156.179 20.5882 154.572 21.2001 154.273 20.2875V14.6455C154.273 13.1838 156.14 13.8825 157.402 14.6455V19.3559ZM173.735 21.5042H169.658C171.311 20.5987 172.655 19.3698 173.817 17.9532L173.733 21.5042H173.735ZM173.819 16.036C173.52 16.7348 172.522 18.054 172.223 18.459C171.426 18.8657 171.026 17.7481 171 17.2562V11.138C171.038 10.0308 171.437 9.4346 172.237 9.3981H173.819V16.036Z" fill="white"/>
<path d="M19.8442 1.81808L0 1.61646L0.0836947 23.8403H9.57365L9.47458 2.93571L19.7468 3.03652L19.6478 23.6369C19.9586 24.2001 20.3566 24.2905 20.8502 23.8403L20.9442 2.52898C21.0432 2.02145 20.8092 1.75725 19.8476 1.81808H19.8442Z" fill="white"/>
<path d="M28.919 7.50179C25.1288 7.70515 22.138 11.4595 22.3378 16.1282C22.5735 20.5031 24.2099 23.7099 28.919 24.3478C31.6689 23.9602 33.7289 22.4341 35.1021 19.7817C35.2012 19.0708 34.7024 18.5633 34.5043 18.97C33.307 20.7968 31.4127 23.2319 28.9224 23.2128C28.3024 23.2198 27.8566 22.8808 27.7233 21.9144L27.8224 16.3628L35.5018 16.4358C35.6077 11.3796 33.0081 7.50527 28.9207 7.50527L28.919 7.50179ZM30.5143 15.3165H27.8224V9.66925C27.8224 7.90852 30.5143 8.21269 30.5143 9.63275V15.3165Z" fill="white"/>
</g>
<defs>
<clipPath id="clip0_125_691">
<rect width="180" height="24.3478" fill="white"/>
</clipPath>
</defs>
</svg>
