<svg width="290" height="42" viewBox="0 0 290 42" fill="none" xmlns="http://www.w3.org/2000/svg">
<g clip-path="url(#clip0_126_735)">
<mask id="mask0_126_735" style="mask-type:luminance" maskUnits="userSpaceOnUse" x="103" y="2" width="34" height="32">
<path d="M136.911 2.46973H103.432V33.9437H136.911V2.46973Z" fill="white"/>
</mask>
<g mask="url(#mask0_126_735)">
<path fill-rule="evenodd" clip-rule="evenodd" d="M114.324 5.90686L110.889 11.9858L115.11 14.3719L118.147 8.70014L119.075 6.96737L118.535 6.03943C116.557 2.87688 114.845 4.9884 114.315 5.91633L114.324 5.90686ZM109.3 24.2856L109.432 23.8879L111.012 20.981L112.593 21.909H112.99C113.264 21.909 113.529 21.5113 113.529 21.1325L112.205 15.5649C112.205 15.3093 111.94 15.0347 111.542 15.1862L105.732 16.8905C105.335 17.0136 105.202 17.5628 105.467 17.9416L106.782 18.6139L103.877 23.8879C103.224 25.2135 103.48 25.7438 103.48 25.7438L106.659 31.2925C105.874 29.9858 107.322 27.5997 107.322 27.5997L109.3 24.2856ZM111.419 27.4671H109.564L109.035 28.3761C107.18 31.6901 109.962 32.0878 110.889 32.2204H117.892V27.4766H111.419V27.4671ZM133.477 27.0694H125.954L125.821 25.4881C125.821 25.3366 125.821 25.2135 125.689 25.0904C125.556 24.8159 125.159 24.8159 124.771 24.939L120.541 28.7832C120.418 29.181 120.418 29.4555 120.541 29.7112L125.027 33.8016C125.301 34.0763 125.963 33.9532 126.086 33.546V32.0878L132.029 31.9647C133.486 31.9647 133.884 31.2925 133.884 31.2925L136.912 25.8669C136.259 27.0694 133.477 27.0694 133.477 27.0694ZM131.225 23.6323L132.285 25.3366H133.344C137.167 25.2135 135.975 22.5718 135.578 21.7669L132.143 15.688L128.045 18.0552L131.215 23.6228L131.225 23.6323ZM122.245 8.69065L123.957 11.4555L122.5 12.3835C122.377 12.3835 122.377 12.5066 122.235 12.6391C122.235 12.9137 122.235 13.4439 122.623 13.567L128.178 15.1673C128.433 15.2904 128.708 15.0157 128.84 14.7696L130.155 8.82324C130.288 8.42552 129.758 8.0184 129.37 8.0184L128.178 8.82324L124.998 3.65332C124.213 2.46973 123.541 2.46973 123.541 2.46973L117.201 2.59282C118.649 2.59282 119.973 4.97893 119.973 4.97893L121.961 8.29298L122.226 8.69065H122.245Z" fill="white"/>
<path d="M122.442 16.106V17.0662L120.85 23.0257H119.972L121.622 16.8491H119.427V16.106H122.442Z" fill="white"/>
</g>
<path d="M117.966 35.9877C118.667 35.9877 119.177 36.1254 119.497 36.4008C119.818 36.6762 119.978 37.0642 119.978 37.565C119.978 37.7853 119.94 37.9981 119.865 38.2034C119.795 38.4036 119.678 38.5839 119.512 38.7442C119.347 38.9044 119.127 39.0321 118.852 39.1272C118.577 39.2173 118.239 39.2624 117.839 39.2624H117.223V41.3504H116.548V35.9877H117.966ZM117.906 36.566H117.223V38.6841H117.764C118.104 38.6841 118.387 38.649 118.612 38.5789C118.837 38.5038 119.005 38.3861 119.115 38.2259C119.225 38.0657 119.28 37.8554 119.28 37.595C119.28 37.2495 119.17 36.9916 118.95 36.8214C118.729 36.6511 118.382 36.566 117.906 36.566ZM123.389 36.5059C123.104 36.5059 122.846 36.556 122.616 36.6562C122.386 36.7513 122.191 36.894 122.031 37.0843C121.87 37.2695 121.748 37.4974 121.663 37.7678C121.578 38.0331 121.535 38.3336 121.535 38.669C121.535 39.1097 121.603 39.4927 121.738 39.8182C121.878 40.1436 122.083 40.394 122.353 40.5693C122.629 40.7445 122.971 40.8321 123.382 40.8321C123.617 40.8321 123.839 40.8121 124.05 40.7721C124.26 40.732 124.465 40.6819 124.665 40.6218V41.2077C124.465 41.2828 124.257 41.3379 124.042 41.3729C123.832 41.4079 123.579 41.4255 123.284 41.4255C122.739 41.4255 122.283 41.3128 121.918 41.0875C121.553 40.8622 121.277 40.5417 121.092 40.1261C120.912 39.7105 120.822 39.2223 120.822 38.6615C120.822 38.256 120.877 37.8854 120.987 37.5499C121.102 37.2144 121.267 36.924 121.483 36.6787C121.703 36.4333 121.973 36.2456 122.293 36.1154C122.614 35.9802 122.981 35.9126 123.397 35.9126C123.672 35.9126 123.937 35.9401 124.192 35.9952C124.447 36.0503 124.675 36.1279 124.875 36.2281L124.605 36.7989C124.44 36.7238 124.255 36.6562 124.05 36.5961C123.85 36.536 123.629 36.5059 123.389 36.5059Z" fill="white"/>
</g>
<g clip-path="url(#clip1_126_735)">
<path d="M66.7955 40.4173L69.6641 25.1561H67.506L64.9919 38.2917H61.2646L58.8044 25.1616H56.6462L59.461 40.4173H66.7955ZM63.4554 21.8376L61.8462 20.2277L60.2371 21.8376L61.8462 23.4479L63.4554 21.8376ZM64.9564 24.8788L63.3473 23.2686L61.7383 24.8788L63.3473 26.4888L64.9564 24.8788ZM63.7573 29.7847V27.574H61.5481V29.7847H63.7573ZM72.6213 15.6308L72.6398 38.7082C72.6398 41.0166 76.0323 40.9955 76.0323 38.6554L76.0349 25.2298H76.6953L76.6926 38.6556C76.6926 40.9956 80.1247 41.0548 80.1247 38.7149L80.1274 15.5407H80.7235V23.8163C80.7235 25.803 83.4178 25.8032 83.4178 23.852V14.7987C83.4178 12.365 81.6076 10.9319 79.6931 10.9319H74.3214C73.0474 10.9319 72.1226 11.4364 71.3458 12.5468L68.6271 16.5113H63.9095C62.0138 16.5113 62.1202 19.2015 63.8739 19.2015H69.3114C69.7368 19.2015 70.2546 19.0426 70.5522 18.5981L72.6219 15.6375L72.6213 15.6308ZM76.5029 10.0751C78.1711 10.0751 79.5237 8.72158 79.5237 7.05222C79.5237 5.38285 78.1711 4.0293 76.5029 4.0293C74.8345 4.0293 73.482 5.38285 73.482 7.05222C73.482 8.72158 74.8345 10.0751 76.5029 10.0751Z" fill="white"/>
</g>
<g clip-path="url(#clip2_126_735)">
<path d="M0 42H8.77454V37.59H4.36724V24.3998H8.77454V20.0298H4.36724V6.83971H8.77454V2.46973H0V42Z" fill="white"/>
<path fill-rule="evenodd" clip-rule="evenodd" d="M26.3237 42H21.9565V24.3998H17.5491V42H13.1418V2.46973H26.3237V42ZM17.5491 20.0298H21.9565V6.83971H17.5491V20.0298Z" fill="white"/>
<path d="M39.5055 2.46973H30.771V42H39.5055V37.59H35.1382V6.83971H39.5055V2.46973Z" fill="white"/>
</g>
<g clip-path="url(#clip3_126_735)">
<path d="M201.766 37.8253C204.087 37.7224 205.911 37.3074 207.34 36.5803C208.67 35.9132 209.77 34.8624 210.501 33.5628C211.677 31.5265 211.61 29.2553 211.542 26.8876L211.513 25.8774C208.651 25.5075 206.433 24.6389 204.821 23.2717C203.029 21.7533 202.006 19.6558 201.702 16.9889C201.202 12.6428 201.696 4.78366 201.696 0H228.62V16.9857L228.588 17.0983C227.947 19.5721 226.774 21.6021 224.912 23.1366C223.216 24.5231 220.956 25.456 217.991 25.8613L217.966 26.8264C217.898 29.2038 217.828 31.7774 218.844 33.6658C219.542 34.9903 220.655 36.0474 222.011 36.6736C223.463 37.3653 225.29 37.7288 227.511 37.8253L227.437 39.5303C224.989 39.4242 222.95 39.0092 221.286 38.2178C219.604 37.4428 218.221 36.1353 217.35 34.4957C216.123 32.2117 216.2 29.4 216.273 26.7975C216.273 26.2763 216.302 25.7584 216.302 25.1118V24.3397L217.068 24.2625C220.062 23.9408 222.264 23.114 223.847 21.8208C225.376 20.5694 226.351 18.8644 226.918 16.783V1.7243H203.401V16.8441C203.664 19.0413 204.487 20.7496 205.92 21.9624C207.404 23.2202 209.558 23.9858 212.433 24.2561L213.209 24.3301V25.1054C213.209 25.7874 213.209 26.3149 213.241 26.8361C213.318 29.4483 213.389 31.9575 211.959 34.4121C211.066 36.0006 209.72 37.2845 208.093 38.0988C206.449 38.9352 204.398 39.4113 201.827 39.5239L201.753 37.8189L201.766 37.8253ZM240.143 0C240.143 4.16278 240.243 8.42207 240.143 12.572C240.174 12.9879 240.094 13.4046 239.909 13.7783C239.522 14.7797 238.911 15.6788 238.124 16.4066C237.537 16.9357 236.845 17.3357 236.095 17.5808V39.3083H234.396V16.2393L235.072 16.0946C235.787 15.9493 236.451 15.6163 236.996 15.1295C237.588 14.5766 238.047 13.8956 238.339 13.1382C238.425 12.9628 238.463 12.7671 238.448 12.572C238.448 8.3899 238.448 4.20782 238.448 0L240.143 0ZM236.38 0V10.2557H234.672V0H236.38ZM232.617 0V10.2557H230.909V0H232.617Z" fill="white"/>
</g>
<g clip-path="url(#clip4_126_735)">
<path d="M181.5 16.8901V19.8549H183.475V23.4785H188.084V19.8549H190.059V16.8901H181.5Z" fill="white"/>
<path fill-rule="evenodd" clip-rule="evenodd" d="M185.779 25.7848V31.7143C168.002 39.7851 150.554 33.1967 150.554 20.1846C150.554 7.17258 169.483 0.419482 185.779 8.65496V14.2551C176.232 11.7844 171.294 14.5845 171.294 19.8552C171.294 25.1259 176.068 27.7613 185.779 25.7848ZM159.772 29.079C157.796 29.079 156.48 27.926 156.48 26.773V15.2434C156.48 13.5963 159.278 10.9609 161.418 10.9609H163.228C165.204 10.9609 168.002 13.4315 168.002 16.561C168.002 19.8552 164.874 22.1612 162.405 22.1612C161.865 22.1072 161.573 22.0456 161.089 21.8317V18.867C163.489 19.2823 164.71 18.2081 164.71 16.561C164.71 15.0786 163.558 13.9257 162.405 13.9257C160.595 13.9257 159.772 15.0786 159.772 15.5728V29.079Z" fill="white"/>
</g>
<g clip-path="url(#clip5_126_735)">
<path d="M289.844 24.7862C285.79 36.8084 281.893 35.7134 281.893 35.7134H277.226V40.2497L272.849 31.3671L277.226 22.6074V27.1437H286.416C287.823 27.1437 289.844 24.8085 289.844 24.8085V24.7862ZM277.684 15.4231L282.362 23.3895C282.362 23.3895 285.009 26.8197 288.124 24.6297C291.239 22.4398 289.531 18.8533 289.531 18.8533L285.009 11.2109L277.684 15.4231ZM257.105 29.6129C257.73 28.2163 261.783 21.6689 261.783 21.6689L265.524 23.8588L260.231 15.5684L250.394 15.1215L254.291 17.289L251.957 21.3672C251.957 21.3672 248.998 24.3057 257.417 33.6911C257.417 33.6911 256.636 31.0319 257.094 29.6129H257.105ZM258.981 32.4285C259.293 36.1827 263.19 36.3391 263.19 36.3391L272.078 36.4844V27.8923H262.867C262.867 27.8923 258.523 28.6856 258.981 32.4285ZM269.566 2.95398C270.203 4.04894 274.245 10.9204 274.245 10.9204L270.359 13.2556L280.174 12.6075L285.634 4.49587L281.57 6.68579L279.381 2.62996C279.381 2.62996 278.756 -0.487323 265.814 1.23333C265.814 1.23333 268.93 1.85902 269.555 2.95398H269.566ZM268.327 8.26119C268.327 8.26119 270.046 4.20537 266.607 2.62996C263.023 0.90931 260.991 4.19419 260.991 4.19419L256.468 11.8366L263.793 16.2164L268.316 8.25002L268.327 8.26119Z" fill="white"/>
</g>
<defs>
<clipPath id="clip0_126_735">
<rect width="33.5796" height="39.5303" fill="white" transform="translate(103.432 2.46973)"/>
</clipPath>
<clipPath id="clip1_126_735">
<rect width="39.5055" height="39.5303" fill="white" transform="translate(50.2793 2.46973)"/>
</clipPath>
<clipPath id="clip2_126_735">
<rect width="39.5055" height="39.5303" fill="white" transform="translate(0 2.46973)"/>
</clipPath>
<clipPath id="clip3_126_735">
<rect width="38.7074" height="39.5303" fill="white" transform="translate(201.478)"/>
</clipPath>
<clipPath id="clip4_126_735">
<rect width="39.5055" height="30.3066" fill="white" transform="translate(150.554 5.03125)"/>
</clipPath>
<clipPath id="clip5_126_735">
<rect width="39.606" height="39.5303" fill="white" transform="translate(250.394 0.71875)"/>
</clipPath>
</defs>
</svg>
